<svg width="538" height="701" viewBox="0 0 538 701" fill="none" xmlns="http://www.w3.org/2000/svg">
<path d="M152.008 327.635C145.591 327.635 140.341 332.885 140.341 339.302V450.02C140.924 450.489 141.508 450.838 142.091 451.302H144.31L150.029 456.552C150.727 457.02 151.31 457.369 151.893 457.718C151.893 457.718 152.008 457.718 152.008 457.833C155.742 460.052 158.539 461.802 161.576 463.432L163.211 464.249C163.326 464.369 163.56 464.369 163.675 464.484C166.94 466.234 170.206 467.984 173.591 469.499C175.81 470.551 177.56 471.484 179.19 472.067L180.357 472.536C182.576 473.468 184.789 474.52 187.008 475.333V327.639L152.008 327.635Z" fill="white"/>
<path d="M152.008 304.302H163.674V269.302C163.674 264.869 161.227 260.901 157.258 258.916L87.2578 223.916C83.6433 222.052 79.3255 222.281 75.8255 224.385C72.4401 226.484 70.3411 230.218 70.3411 234.302V368.462C73.8411 375.462 77.6901 382.227 82.0078 388.878C84.2266 392.492 86.6745 395.992 89.2422 399.492C90.7578 401.596 92.1589 403.575 93.6745 405.445C95.6589 408.013 97.5234 410.346 99.5078 412.56C103.591 417.461 106.857 420.841 110.008 423.992C112.341 426.445 114.674 428.659 117.008 430.877V339.293C117.008 324.127 126.81 311.179 140.341 306.392C143.956 304.991 147.924 304.293 152.008 304.293V304.302Z" fill="white"/>
<path d="M327.008 304.302H338.674V234.302C338.674 227.885 333.424 222.635 327.008 222.635H303.674V140.968C303.674 134.552 298.424 129.302 292.008 129.302H245.341C238.924 129.302 233.674 134.552 233.674 140.968V245.968H222.008C215.591 245.968 210.341 251.218 210.341 257.635V483.155C212.091 483.624 213.956 484.087 215.706 484.556C217.81 485.025 219.909 485.608 222.008 485.957C223.174 486.306 224.341 486.54 225.508 486.655L226.789 486.889C229.122 487.358 231.456 487.822 233.675 488.056C234.607 488.29 235.539 488.405 236.477 488.525C243.94 489.691 250.706 490.389 257.007 490.738V490.973H292.007V339.306C292.007 324.139 301.809 311.191 315.341 306.405C318.955 305.004 322.924 304.306 327.007 304.306L327.008 304.302Z" fill="white"/>
<path d="M373.674 327.635H327.008C320.591 327.635 315.341 332.885 315.341 339.302V486.062C317.56 485.593 319.539 485.129 321.523 484.661C323.273 484.197 325.143 483.728 327.008 483.145C328.643 482.796 330.273 482.327 331.909 481.864L335.294 480.812C336.456 480.463 337.508 480.114 338.675 479.645C343.341 478.129 348.122 476.379 353.024 474.28C356.175 473.114 359.092 471.713 362.008 470.312C362.477 470.077 363.06 469.843 363.524 469.614C367.144 467.978 370.409 466.114 373.675 464.364C373.79 464.249 374.024 464.249 374.144 464.129C378.107 462.03 381.842 459.812 385.342 457.713V339.297C385.342 332.88 380.092 327.63 373.675 327.63L373.674 327.635Z" fill="white"/>
<path d="M443.674 199.302C443.674 194.635 440.872 190.317 436.44 188.567C432.122 186.703 427.107 187.749 423.721 191.015L365.388 249.348C363.289 251.567 362.008 254.484 362.008 257.635V304.301H373.674C377.758 304.301 381.726 304.999 385.341 306.4C398.872 311.187 408.674 324.135 408.674 339.302V441.036C411.242 439.052 413.81 436.839 416.372 434.505C417.659 433.453 418.94 432.167 420.341 431C422.325 429.135 424.424 427.151 426.174 425.167L427.107 424.115C428.742 422.37 430.372 420.734 432.008 418.87C436.091 414.552 440.06 409.885 443.674 405.219L443.674 199.302Z" fill="white"/>
<path d="M268.674 0.968269C120.741 0.968269 0.341125 121.37 0.341125 269.302C0.341125 338.832 26.8251 404.168 73.3718 453.395C73.6062 453.629 73.8405 453.864 74.0697 453.978C86.7885 467.514 101.143 479.88 117.007 490.614C117.241 490.729 117.476 490.963 117.705 491.078L119.455 515.343L119.804 520.244L127.153 621.744C128.439 640.062 143.841 654.296 162.038 654.296H163.674V689.296C163.674 695.713 168.924 700.963 175.34 700.963H362.007C368.424 700.963 373.674 695.713 373.674 689.296V654.296H375.309C393.506 654.296 408.908 640.062 410.194 621.744L417.538 520.13L417.773 517.098L419.637 491.082C425.47 487.114 431.189 482.916 436.668 478.483L437.949 477.666C439.116 476.968 440.168 476.15 440.866 475.098C450.204 467.28 458.954 458.879 467.006 450.015C511.574 401.245 537.006 337.198 537.006 269.295C537.006 121.362 416.604 0.961975 268.672 0.961975L268.674 0.968269ZM350.341 677.635H187.008V654.302H350.341V677.635ZM432.008 451.768C424.659 458.419 416.841 464.716 408.674 470.32C406.456 471.956 404.242 473.351 401.909 474.872C396.539 478.367 390.94 481.633 385.341 484.664C381.492 486.763 377.643 488.747 373.674 490.612C369.825 492.477 365.976 494.227 362.008 495.862C354.424 499.013 346.726 501.81 338.789 504.143L338.674 504.148C334.825 505.315 330.857 506.367 327.008 507.3C323.159 508.232 319.19 509.164 315.341 509.747C307.643 511.263 299.825 512.43 292.008 513.133C284.19 513.951 276.492 514.3 268.674 514.3C264.825 514.3 260.857 514.185 257.008 514.065C249.19 513.716 241.372 512.898 233.674 511.732C229.825 511.263 225.857 510.565 222.008 509.747C218.159 509.164 214.19 508.232 210.341 507.3C202.409 505.435 194.705 503.102 187.008 500.3C181.643 498.435 176.159 496.216 170.909 493.883C168.456 492.951 166.008 491.784 163.675 490.617C159.706 488.753 155.742 486.768 152.008 484.784V484.669C151.539 484.435 151.076 484.201 150.607 483.971C147.107 482.102 143.727 480.117 140.341 478.018V477.904C138.706 476.971 137.076 475.919 135.44 474.873C135.326 474.758 135.091 474.638 134.971 474.638C128.789 470.55 122.727 466.232 117.007 461.565C108.726 455.149 100.909 448.149 93.6741 440.68C89.4762 436.597 85.6219 432.279 82.0074 427.961C77.8095 423.18 73.9553 418.279 70.3407 413.264C40.3567 372.081 23.6741 321.914 23.6741 269.304C23.6741 134.21 133.575 24.3038 268.674 24.3038C403.773 24.3038 513.674 134.205 513.674 269.304C513.674 321.918 496.991 371.856 467.007 413.037C460.007 422.719 452.19 431.938 443.674 440.568C440.174 444.537 436.091 448.271 432.007 451.771L432.008 451.768Z" fill="white"/>
</svg>
